<svg width="4905" height="4512" viewBox="0 0 4905 4512" fill="none" xmlns="http://www.w3.org/2000/svg">
<path d="M2152.25 2537.64L2451.69 4510.51C2569.19 3740.06 2751.59 2537.64 2751.59 2537.64L2451.92 2258.08L2152.25 2537.64Z" stroke="#FF4242" stroke-width="11.52"/>
<path d="M2152.25 1978.52L2451.69 5.64771C2569.19 776.103 2751.59 1978.52 2751.59 1978.52L2451.92 2258.08L2152.25 1978.52Z" stroke="#FF4242" stroke-width="11.52"/>
<path d="M2152.74 2538.92L2451.97 2258.58L2152.33 1980L0.745117 2260.72L2152.74 2538.92Z" stroke="#FF4242" stroke-width="11.52"/>
<path d="M2751.71 2538.92L2452.48 2258.58L2752.12 1980L4903.7 2260.72L2751.71 2538.92Z" stroke="#FF4242" stroke-width="11.52"/>
<path d="M2699.5 1621.21L2751.28 1976.29L3073.59 2021.94L3388.47 1419.82L2699.5 1621.21Z" stroke="#FF4242" stroke-width="11.52"/>
<path d="M2200.67 1621.21L2148.88 1976.29L1826.57 2021.94L1511.69 1419.82L2200.67 1621.21Z" stroke="#FF4242" stroke-width="11.52"/>
<path d="M2200.67 2896.01L2148.88 2540.94L1826.57 2495.29L1511.69 3097.41L2200.67 2896.01Z" stroke="#FF4242" stroke-width="11.52"/>
<path d="M2699.5 2896.01L2751.28 2540.94L3073.59 2495.29L3388.47 3097.41L2699.5 2896.01Z" stroke="#FF4242" stroke-width="11.52"/>
<path d="M2699.5 1621.21L2751.28 1976.29L2944.38 1807.71L3388.47 1419.82L2699.5 1621.21Z" fill="#FF4242" stroke="#FF4242" stroke-width="11.52"/>
<path d="M1984.45 1832.07L2148.88 1976.29L1826.57 2021.94L1511.69 1419.82L1984.45 1832.07Z" fill="#FF4242" stroke="#FF4242" stroke-width="11.52"/>
<path d="M2200.67 2896.01L2148.88 2540.94L1955.79 2709.52L1511.69 3097.41L2200.67 2896.01Z" fill="#FF4242" stroke="#FF4242" stroke-width="11.52"/>
<path d="M2915.72 2685.16L2751.29 2540.94L3073.6 2495.29L3388.48 3097.41L2915.72 2685.16Z" fill="#FF4242" stroke="#FF4242" stroke-width="11.52"/>
<path d="M2451.92 2537.64L2451.69 4510.51C2569.19 3740.06 2751.59 2537.64 2751.59 2537.64L2451.92 2258.08L2451.92 2537.64Z" fill="#FF4242" stroke="#FF4242" stroke-width="11.52"/>
<path d="M2152.24 1978.52L2451.91 0.863037V1985.57V2258.08L2152.24 1978.52Z" fill="#FF4242" stroke="#FF4242" stroke-width="11.52"/>
<path d="M2152.74 2538.94L2451.97 2258.6L2077.69 2258.6L0.745117 2260.74L2152.74 2538.94Z" fill="#FF4242" stroke="#FF4242" stroke-width="11.52"/>
<path d="M2750.91 1980.02L2451.69 2260.36L2825.97 2260.36L4902.91 2258.22L2750.91 1980.02Z" fill="#FF4242" stroke="#FF4242" stroke-width="11.52"/>
</svg>
